<?xml version="1.0" encoding="utf-8"?>
<!-- Generator: Adobe Illustrator 23.1.0, SVG Export Plug-In . SVG Version: 6.00 Build 0)  -->
<svg version="1.1" id="Layer_1" xmlns="http://www.w3.org/2000/svg" xmlns:xlink="http://www.w3.org/1999/xlink" x="0px" y="0px"
	 viewBox="0 0 80 100" style="enable-background:new 0 0 80 100;" xml:space="preserve">
<style type="text/css">
	.st0{fill:#808080;}
</style>
<title>PRINCESS</title>
<path class="st0" d="M57.7,65.2C57.7,65.2,57.7,65.2,57.7,65.2c-0.1,0-0.1,0-0.2,0h-4.3c-0.5-2.1-0.5-4.3-0.2-6.4
	c1.9-2.7,2.9-5.9,2.9-9.2V32l0.8-7.7c5.5,2,5,5.9,4.8,7.3c-0.4,2.8-1.1,5.5-1.9,8.1c-1.4,4.4-2.4,7.5,1.6,11.8
	c1.6,1.8,3,3.9,3.9,6.2c0.3,0.8,1.3,1.2,2.1,0.9c0.8-0.3,1.2-1.3,0.9-2.1c0,0,0,0,0,0c-1.1-2.6-2.6-5-4.5-7.1
	c-2.7-3-2.2-4.7-0.9-8.7c0.9-2.8,1.6-5.7,2.1-8.6c0.7-5.4-2-9.3-7.7-11l0.7-7.1c0.1-0.9-0.6-1.7-1.4-1.8c-0.4,0-0.9,0.1-1.2,0.4
	l-8,6.8l-5.9-8.6c-0.6-0.7-1.6-0.9-2.3-0.3c-0.1,0.1-0.2,0.2-0.3,0.3l-5.9,8.6l-8-6.8c-0.7-0.6-1.7-0.5-2.3,0.2
	c-0.3,0.3-0.4,0.8-0.4,1.2L24,32v17.6c0,3.3,1,6.5,2.9,9.2c0.4,2.1,0.3,4.3-0.2,6.4h-4.3c0,0-0.1,0-0.1,0s-0.1,0-0.1,0
	c-2.6,0-5.1,1.2-6.7,3.3c-1-0.7-1.7-1.8-1.9-3c-0.9-3.8,1.3-9.7,5.1-13.9c3.9-4.3,2.9-7.5,1.6-11.8c-0.9-2.6-1.5-5.4-1.9-8.1
	c-0.5-2.1,0.3-4.3,1.9-5.8c0.7-0.6,0.8-1.6,0.2-2.3c-0.6-0.7-1.6-0.8-2.3-0.2c-2.5,2.1-3.7,5.4-3,8.7c0.4,2.9,1.1,5.8,2.1,8.6
	c1.3,4.1,1.8,5.7-0.9,8.7c-3.8,4.2-7.1,11.4-5.9,16.8c0.4,2.1,1.7,4,3.6,5.1c-0.2,0.8-0.3,1.5-0.3,2.3v14.8c0,0.9,0.7,1.6,1.6,1.6
	s1.6-0.7,1.6-1.6V73.7c0-2.9,2.4-5.3,5.3-5.3c0,0,0.1,0,0.1,0c0,0,0.1,0,0.1,0h13c0.8,0,1.5-0.6,1.6-1.5l0.3-3.5
	c0.1-0.7-0.4-1.4-1.1-1.7c-2.5-0.8-4.8-2.3-6.4-4.5c0-0.1-0.1-0.1-0.1-0.2c-1.4-1.9-2.3-4.2-2.5-6.6c0-0.3,0-0.7,0-1V33.5h16.2
	c-3.6,3.8-8,6.7-12.8,8.7c-0.8,0.4-1.1,1.3-0.7,2.1c0.4,0.7,1.2,1.1,2,0.8c5.7-2.4,10.7-5.9,14.9-10.5c1.6,2.4,3.7,4.5,6.1,6.2v8.8
	c0,0.3,0,0.7,0,1c-0.2,2.4-1,4.7-2.5,6.6c0,0.1-0.1,0.1-0.1,0.2c-1.6,2.1-3.8,3.7-6.4,4.5c-0.7,0.2-1.2,0.9-1.1,1.7l0.3,3.5
	c0.1,0.8,0.8,1.5,1.6,1.5h9.2L40,82.6L29.5,71.8c-0.6-0.7-1.6-0.7-2.3-0.1c-0.7,0.6-0.7,1.6-0.1,2.3c0,0,0.1,0.1,0.1,0.1l11.6,12
	c0.6,0.6,1.6,0.6,2.3,0c0,0,0,0,0,0l17-17.5c2.7,0.2,4.8,2.5,4.8,5.2v14.8c0,0.9,0.7,1.6,1.6,1.6c0.9,0,1.6-0.7,1.6-1.6V73.7
	C66.2,69,62.4,65.2,57.7,65.2z M34,64.4l-0.1,0.8h-3.9c0.2-0.9,0.3-1.9,0.3-2.8C31.5,63.2,32.7,63.9,34,64.4L34,64.4z M27,30.3
	l-1.3-12.7l6.3,5.4c0.7,0.6,1.7,0.5,2.3-0.2c0,0,0.1-0.1,0.1-0.1l5.5-8.2l5.5,8.2c0.5,0.7,1.5,0.9,2.2,0.4c0,0,0.1-0.1,0.1-0.1
	l6.3-5.4l-1.3,12.7H27z M49.8,33.5h3v3.3C51.7,35.8,50.6,34.7,49.8,33.5L49.8,33.5z M46,64.4c1.3-0.5,2.5-1.2,3.7-2.1
	c0,1,0.1,1.9,0.3,2.8h-3.9L46,64.4z"/>
<path class="st0" d="M68.1,62.2L68.1,62.2c-0.9,0-1.6,0.7-1.6,1.6c0,0.3,0,0.6,0,0.8c-0.1,0.9,0.5,1.7,1.4,1.8c0,0,0,0,0,0
	c0.1,0,0.1,0,0.2,0c0.8,0,1.5-0.6,1.6-1.4c0-0.4,0.1-0.7,0.1-1.1C69.7,62.9,69,62.2,68.1,62.2C68.1,62.2,68.1,62.2,68.1,62.2z"/>
</svg>
