<?xml version="1.0" encoding="utf-8"?>
<!-- Generator: Adobe Illustrator 23.1.0, SVG Export Plug-In . SVG Version: 6.00 Build 0)  -->
<svg version="1.1" id="Layer_1" xmlns="http://www.w3.org/2000/svg" xmlns:xlink="http://www.w3.org/1999/xlink" x="0px" y="0px"
	 viewBox="0 0 80 100" style="enable-background:new 0 0 80 100;" xml:space="preserve">
<title>PRINCE</title>
<path d="M60.4,64.1H46.3l-0.1-0.9c5.2-2.1,9-6.6,10.1-12c3.8-0.7,6.4-4.3,5.8-8.2c-0.5-2.8-2.6-5-5.4-5.7v-5.7
	c0-2.3-1.9-4.2-4.2-4.2l0,0H30l-3.7-9.6l5.6,3.9c0.7,0.5,1.6,0.3,2.1-0.3l6-7.2l6,7.2c0.5,0.6,1.5,0.8,2.1,0.3l5.6-3.9L52,22.2
	c-0.3,0.8,0.1,1.8,0.9,2.1c0.8,0.3,1.8-0.1,2.1-0.9l3.5-9.2c0.3-0.8-0.1-1.8-0.9-2.1c-0.5-0.2-1.1-0.1-1.5,0.2l-8.6,6l-6.3-7.6
	c-0.6-0.7-1.7-0.7-2.4-0.1c0,0-0.1,0.1-0.1,0.1l-6.3,7.6l-8.6-6c-0.7-0.5-1.7-0.3-2.2,0.4c-0.3,0.4-0.4,1-0.2,1.5l5.2,13.4
	c-1.9,0.4-3.3,2.1-3.3,4.1v5.7c-3.8,0.9-6.2,4.7-5.3,8.5c0.6,2.8,2.9,4.9,5.7,5.4c1.2,5.4,5,9.9,10.1,12l-0.1,0.9H19.6
	c-4.7,0-8.5,3.8-8.5,8.5v15.9c0,0.9,0.7,1.6,1.6,1.6c0.9,0,1.6-0.7,1.6-1.6V72.6c0-2.9,2.4-5.3,5.3-5.3h15.6c0.8,0,1.5-0.6,1.6-1.5
	l0.3-3.6c0.1-0.7-0.4-1.4-1.1-1.7c-5.7-1.7-9.5-7-9.5-12.9v-16c0-0.6,0.5-1,1-1h16.2c-3.9,4-8.5,7.2-13.6,9.3c-0.8,0.3-1.3,1.2-1,2
	c0.3,0.8,1.2,1.3,2,1c0.1,0,0.1,0,0.2-0.1c6-2.5,11.4-6.3,15.7-11.1c1.7,2.6,3.9,4.8,6.5,6.6v9.3c0,5.9-3.8,11.1-9.5,12.9
	c-0.7,0.2-1.2,0.9-1.1,1.7l0.3,3.6c0.1,0.8,0.8,1.5,1.6,1.5h9.8L40,82.4l-7.9-8.2c-0.6-0.6-1.6-0.6-2.3,0c-0.6,0.6-0.6,1.6,0,2.2
	l9.1,9.3c0.6,0.6,1.6,0.6,2.3,0c0,0,0,0,0,0l18-18.5h1.3c2.9,0,5.3,2.4,5.3,5.3v15.9c0,0.9,0.7,1.6,1.6,1.6s1.6-0.7,1.6-1.6V72.6
	C68.9,67.9,65.1,64.1,60.4,64.1z M23.3,47.7c-1.9-0.9-2.8-3.2-1.9-5.1c0.4-0.8,1.1-1.5,1.9-1.9V47.7z M59,44.2
	c0,1.5-0.9,2.9-2.3,3.5v-7C58.1,41.3,59,42.7,59,44.2z M50.1,30.6h2.4c0.6,0,1,0.5,1,1c0,0,0,0,0,0v2.7C52.2,33.3,51.1,32,50.1,30.6
	z"/>
<path d="M27.9,69.9c-0.6-0.6-1.6-0.6-2.3,0c-0.6,0.6-0.6,1.6,0,2.2l0.4,0.4c0.6,0.6,1.6,0.7,2.3,0c0.6-0.6,0.7-1.6,0-2.3l0,0
	L27.9,69.9z"/>
</svg>
