<svg id="Layer_1" data-name="Layer 1" xmlns="http://www.w3.org/2000/svg" viewBox="0 0 455.5059 400.5454"><title>potmeter</title><rect x="109.0059" y="110.6235" width="206" height="169" rx="25.3643" fill="#338f4d"/><rect x="125.0059" y="110.6235" width="206" height="169" rx="25.3643" fill="#ccc"/><circle cx="308.5059" cy="133.1235" r="9.5" fill="#338f4d"/><circle cx="308.5059" cy="257.1235" r="9.5" fill="#338f4d"/><circle cx="147.5059" cy="133.1235" r="9.5" fill="#338f4d"/><circle cx="147.5059" cy="257.1235" r="9.5" fill="#338f4d"/><rect x="98.0059" y="223.6235" width="11" height="33" fill="#ccc"/><rect x="98.0059" y="132.6235" width="11" height="33" fill="#ccc"/><rect x="98.0059" y="177.6235" width="11" height="33" fill="#ccc"/><path d="M784.52,398.0729a54.0011,54.0011,0,0,0-71.7032-6.4874l18.1881,19.4927-8.0427,7.5044-18.2566-19.5662a53.9966,53.9966,0,1,0,79.8144-.9435Z" transform="translate(-516.9941 -241.3765)" fill="#1a1a1a"/><text transform="translate(0 39.7329)" font-size="46.3003" font-family="ArialMT, Arial">1023</text><text transform="translate(378 188.7329)" font-size="46.3003" font-family="ArialMT, Arial">875</text><text transform="translate(378 315.7915)" font-size="46.3003" font-family="ArialMT, Arial">540</text><text transform="translate(321.528 368.5696)" font-size="46.3003" font-family="ArialMT, Arial">350</text><text transform="translate(163.5061 385.5108)" font-size="46.3003" font-family="ArialMT, Arial">80</text><text transform="translate(90.2845 330.8231)" font-size="46.3003" font-family="ArialMT, Arial">0</text><polyline points="186.006 149.624 104.006 46.624 4.006 46.624" fill="none" stroke="#000" stroke-miterlimit="10" stroke-width="3"/><line x1="289.5059" y1="194.1235" x2="455.5059" y2="194.1235" fill="none" stroke="#000" stroke-miterlimit="10" stroke-width="3"/><polyline points="271.03 235.462 356.388 321.471 455.506 321.471" fill="none" stroke="#000" stroke-miterlimit="10" stroke-width="3"/><polyline points="228.006 253.707 228.046 391.842 163.519 391.842" fill="none" stroke="#000" stroke-miterlimit="10" stroke-width="3"/><polyline points="253.438 250.449 315.006 373.598 396.786 373.598" fill="none" stroke="#000" stroke-miterlimit="10" stroke-width="3"/><polyline points="192.189 247.536 125.006 335.154 90.285 335.154" fill="none" stroke="#000" stroke-miterlimit="10" stroke-width="3"/></svg>