<?xml version="1.0" encoding="utf-8"?>
<!-- Generator: Adobe Illustrator 23.1.0, SVG Export Plug-In . SVG Version: 6.00 Build 0)  -->
<svg version="1.1" id="Layer_1" xmlns="http://www.w3.org/2000/svg" xmlns:xlink="http://www.w3.org/1999/xlink" x="0px" y="0px"
	 viewBox="0 0 24 18" style="enable-background:new 0 0 24 18;" xml:space="preserve">
<style type="text/css">
	.st0{fill:#11A2D4;}
	.st1{fill:#FFFFFF;}
</style>
<path class="st0" d="M19.6,0.2C16-0.1,8-0.1,4.4,0.2C0.5,0.5,0,2.8,0,9s0.5,8.5,4.4,8.8C8,18,16,18,19.6,17.8
	C23.5,17.6,24,15.2,24,9S23.5,0.5,19.6,0.2z"/>
<g>
	<path class="st1" d="M4.7,14.9V3.6h2.8v11.3H4.7z"/>
	<path class="st1" d="M17,14.9l-4.6-7.4l0,0l0.1,7.4H9.8V3.6h3.1l4.5,7.4l0,0l-0.1-7.4H20v11.3H17z"/>
</g>
</svg>
