<?xml version="1.0" encoding="utf-8"?>
<!-- Generator: Adobe Illustrator 23.1.0, SVG Export Plug-In . SVG Version: 6.00 Build 0)  -->
<svg version="1.1" id="Layer_1" xmlns="http://www.w3.org/2000/svg" xmlns:xlink="http://www.w3.org/1999/xlink" x="0px" y="0px"
	 viewBox="0 0 320 320" style="enable-background:new 0 0 320 320;" xml:space="preserve">
<g id="XMLID_6_">
	<path id="XMLID_7_" d="M268.8,145H95c-8.3,0-15,6.7-15,15s6.7,15,15,15h173.8l-19.4,19.4c-5.9,5.9-5.9,15.4,0,21.2
		c5.9,5.9,15.4,5.9,21.2,0l45-45c0.4-0.4,0.7-0.7,1-1.1c0.1-0.2,0.3-0.3,0.4-0.5c0.2-0.2,0.3-0.4,0.5-0.7c0.1-0.2,0.3-0.4,0.4-0.6
		c0.1-0.2,0.3-0.4,0.4-0.6c0.1-0.2,0.2-0.4,0.3-0.7c0.1-0.2,0.2-0.4,0.3-0.7c0.1-0.2,0.2-0.4,0.2-0.7c0.1-0.2,0.2-0.5,0.3-0.7
		c0.1-0.2,0.1-0.4,0.2-0.7c0.1-0.2,0.1-0.5,0.2-0.8c0.1-0.3,0.1-0.5,0.1-0.8c0-0.2,0.1-0.4,0.1-0.7c0-0.5,0.1-1,0.1-1.5c0,0,0,0,0,0
		s0,0,0,0c0-0.5,0-1-0.1-1.5c0-0.2-0.1-0.4-0.1-0.7c0-0.3-0.1-0.5-0.1-0.8c-0.1-0.3-0.1-0.5-0.2-0.7c-0.1-0.2-0.1-0.5-0.2-0.7
		c-0.1-0.2-0.2-0.5-0.2-0.7c-0.1-0.2-0.2-0.5-0.2-0.7c-0.1-0.2-0.2-0.4-0.3-0.6c-0.1-0.2-0.2-0.5-0.3-0.7c-0.1-0.2-0.2-0.4-0.4-0.6
		c-0.1-0.2-0.3-0.4-0.4-0.7c-0.1-0.2-0.3-0.4-0.5-0.6c-0.1-0.2-0.3-0.4-0.4-0.5c-0.3-0.4-0.6-0.7-0.9-1c0,0,0,0,0-0.1l-45-45
		c-2.9-2.9-6.8-4.4-10.6-4.4c-3.8,0-7.7,1.5-10.6,4.4c-5.9,5.9-5.9,15.4,0,21.2L268.8,145z"/>
	<path id="XMLID_8_" d="M15,295h190c8.3,0,15-6.7,15-15v-60c0-8.3-6.7-15-15-15s-15,6.7-15,15v45H30V55h160v45c0,8.3,6.7,15,15,15
		s15-6.7,15-15V40c0-8.3-6.7-15-15-15H15C6.7,25,0,31.7,0,40l0,240C0,288.3,6.7,295,15,295z"/>
</g>
</svg>
