<?xml version="1.0" encoding="utf-8"?>
<!-- Generator: Adobe Illustrator 23.1.0, SVG Export Plug-In . SVG Version: 6.00 Build 0)  -->
<svg version="1.1" id="Layer_1" xmlns="http://www.w3.org/2000/svg" xmlns:xlink="http://www.w3.org/1999/xlink" x="0px" y="0px"
	 viewBox="0 0 24 18" style="enable-background:new 0 0 24 18;" xml:space="preserve">
<style type="text/css">
	.st0{fill:#3BB85D;}
	.st1{fill:#FFFFFF;}
</style>
<path class="st0" d="M19.6,0.2C16-0.1,8-0.1,4.4,0.2C0.5,0.5,0,2.8,0,9s0.5,8.5,4.4,8.8C8,18,16,18,19.6,17.8
	C23.5,17.6,24,15.2,24,9S23.5,0.5,19.6,0.2z"/>
<g>
	<path class="st1" d="M16.2,15.7l0.1-9h-0.1l-3.3,9h-2.2l-3.2-9h0l0.1,9H4.7V2.9h4.4l2.9,8.2l0,0l2.8-8.2h4.5v12.7L16.2,15.7
		L16.2,15.7z"/>
</g>
</svg>
